<svg xmlns="http://www.w3.org/2000/svg" xmlns:xlink="http://www.w3.org/1999/xlink" width="500" zoomAndPan="magnify" viewBox="0 0 375 374.999991" height="500" preserveAspectRatio="xMidYMid meet" version="1.0"><defs><g/><clipPath id="3d812a4146"><path d="M 119.75 113.113281 L 198.601562 113.113281 L 198.601562 191.96875 L 119.75 191.96875 Z M 119.75 113.113281 " clip-rule="nonzero"/></clipPath><clipPath id="a6a1edab2b"><path d="M 159.175781 113.113281 C 137.398438 113.113281 119.75 130.765625 119.75 152.542969 C 119.75 174.316406 137.398438 191.96875 159.175781 191.96875 C 180.949219 191.96875 198.601562 174.316406 198.601562 152.542969 C 198.601562 130.765625 180.949219 113.113281 159.175781 113.113281 " clip-rule="nonzero"/></clipPath><clipPath id="463408411e"><path d="M 184.933594 113.113281 L 263.785156 113.113281 L 263.785156 191.96875 L 184.933594 191.96875 Z M 184.933594 113.113281 " clip-rule="nonzero"/></clipPath><clipPath id="4595a8199f"><path d="M 224.359375 113.113281 C 202.582031 113.113281 184.933594 130.765625 184.933594 152.542969 C 184.933594 174.316406 202.582031 191.96875 224.359375 191.96875 C 246.132812 191.96875 263.785156 174.316406 263.785156 152.542969 C 263.785156 130.765625 246.132812 113.113281 224.359375 113.113281 " clip-rule="nonzero"/></clipPath></defs><rect x="-37.5" width="450" fill="#ffffff" y="-37.499999" height="449.999989" fill-opacity="1"/><rect x="-37.5" width="450" fill="#ffffff" y="-37.499999" height="449.999989" fill-opacity="1"/><rect x="-37.5" width="450" fill="#ffffff" y="-37.499999" height="449.999989" fill-opacity="1"/><g clip-path="url(#3d812a4146)"><g clip-path="url(#a6a1edab2b)"><path fill="#ef97b4" d="M 119.75 113.113281 L 198.601562 113.113281 L 198.601562 191.96875 L 119.75 191.96875 Z M 119.75 113.113281 " fill-opacity="1" fill-rule="nonzero"/></g></g><g clip-path="url(#463408411e)"><g clip-path="url(#4595a8199f)"><path fill="#e8107c" d="M 184.933594 113.113281 L 263.785156 113.113281 L 263.785156 191.96875 L 184.933594 191.96875 Z M 184.933594 113.113281 " fill-opacity="1" fill-rule="nonzero"/></g></g><g fill="#918dbf" fill-opacity="1"><g transform="translate(31.538072, 220.723507)"><g><path d="M 3.199219 0 C 3.949219 0 4.574219 -0.601562 4.574219 -1.351562 L 4.574219 -11.222656 L 8.699219 -6.175781 C 9.25 -5.625 9.925781 -5.625 10.472656 -6.175781 L 14.597656 -11.222656 L 14.597656 -1.351562 C 14.597656 -0.601562 15.222656 0 15.949219 0 C 16.699219 0 17.296875 -0.601562 17.296875 -1.351562 L 17.296875 -14.671875 C 17.296875 -15.421875 16.699219 -16 15.949219 -16 C 15.671875 -16 15.296875 -15.898438 14.972656 -15.625 L 9.597656 -9.148438 L 4.175781 -15.597656 C 3.898438 -15.898438 3.523438 -16.023438 3.175781 -16.023438 C 2.476562 -16.023438 1.851562 -15.5 1.851562 -14.671875 L 1.851562 -1.351562 C 1.851562 -0.601562 2.449219 0 3.199219 0 Z M 3.199219 0 "/></g></g></g><g fill="#918dbf" fill-opacity="1"><g transform="translate(56.085038, 220.723507)"><g><path d="M 9.148438 -14.75 C 8.773438 -15.671875 8.398438 -16 7.597656 -16 C 6.800781 -16 6.300781 -15.449219 6.023438 -14.722656 L 0.648438 -1.898438 C 0.273438 -0.949219 0.773438 0 1.851562 0 C 2.398438 0 2.875 -0.273438 3.101562 -0.824219 L 4 -3.125 L 11.25 -3.125 L 12.148438 -0.824219 C 12.324219 -0.300781 12.847656 0.0234375 13.398438 0 C 14.472656 0 14.972656 -1.101562 14.574219 -1.925781 Z M 7.625 -12.273438 L 10.25 -5.625 L 5 -5.625 Z M 7.625 -12.273438 "/></g></g></g><g fill="#918dbf" fill-opacity="1"><g transform="translate(76.707619, 220.723507)"><g><path d="M 10.875 -5.675781 C 12.5 -6.550781 13.625 -8.074219 13.625 -10.347656 C 13.625 -13.5 10.949219 -16 7.625 -16 L 3.199219 -16 C 2.449219 -16 1.851562 -15.398438 1.851562 -14.648438 L 1.851562 -1.351562 C 1.851562 -0.601562 2.449219 0 3.199219 0 C 3.949219 0 4.574219 -0.601562 4.574219 -1.351562 L 4.574219 -4.847656 L 7.222656 -4.847656 C 7.523438 -4.847656 7.847656 -4.875 8.148438 -4.898438 L 11.324219 -0.476562 C 11.847656 0.25 12.75 0.175781 13.347656 -0.273438 C 13.898438 -0.675781 13.972656 -1.425781 13.375 -2.226562 Z M 4.574219 -13.5 L 7.675781 -13.5 C 9.597656 -13.5 10.898438 -12.074219 10.898438 -10.347656 C 10.898438 -8.625 9.574219 -7.347656 7.648438 -7.347656 L 4.574219 -7.347656 Z M 4.574219 -13.5 "/></g></g></g><g fill="#918dbf" fill-opacity="1"><g transform="translate(96.830274, 220.723507)"><g><path d="M 8.675781 -8.847656 L 13.546875 -13.648438 C 14.097656 -14.199219 14.171875 -15.023438 13.648438 -15.546875 C 13.125 -16.125 12.273438 -16.171875 11.75 -15.625 L 4.574219 -8.472656 L 4.574219 -14.671875 C 4.574219 -15.421875 3.949219 -16 3.199219 -16 C 2.449219 -16 1.851562 -15.421875 1.851562 -14.671875 L 1.851562 -1.351562 C 1.851562 -0.601562 2.449219 0 3.199219 0 C 3.949219 0 4.574219 -0.601562 4.574219 -1.351562 L 4.574219 -5 L 6.75 -7 L 12.273438 -0.425781 C 12.722656 0.199219 13.574219 0.101562 14.125 -0.351562 C 14.671875 -0.824219 14.574219 -1.699219 14.125 -2.324219 Z M 8.675781 -8.847656 "/></g></g></g><g fill="#918dbf" fill-opacity="1"><g transform="translate(117.327877, 220.723507)"><g><path d="M 11.949219 0 C 12.699219 0 13.296875 -0.574219 13.296875 -1.324219 C 13.296875 -1.875 12.699219 -2.5 11.949219 -2.5 L 4.574219 -2.5 L 4.574219 -6.800781 L 10.347656 -6.800781 C 11.097656 -6.800781 11.648438 -7.398438 11.648438 -8.097656 C 11.648438 -8.773438 11.097656 -9.324219 10.347656 -9.324219 L 4.574219 -9.324219 L 4.574219 -13.5 L 11.949219 -13.5 C 12.699219 -13.5 13.296875 -14.074219 13.296875 -14.648438 C 13.296875 -15.398438 12.699219 -16 11.949219 -16 L 3.199219 -16 C 2.425781 -16 1.851562 -15.398438 1.851562 -14.648438 L 1.851562 -1.351562 C 1.851562 -0.601562 2.398438 -0.0507812 3.125 0 Z M 11.949219 0 "/></g></g></g><g fill="#918dbf" fill-opacity="1"><g transform="translate(136.725656, 220.723507)"><g><path d="M 1.476562 -16 C 0.726562 -16 0.125 -15.398438 0.125 -14.648438 C 0.125 -14.097656 0.726562 -13.472656 1.476562 -13.472656 L 5.222656 -13.472656 L 5.222656 -1.351562 C 5.222656 -0.601562 5.824219 0 6.574219 0 C 7.324219 0 7.949219 -0.601562 7.949219 -1.351562 L 7.949219 -13.472656 L 11.675781 -13.472656 C 12.449219 -13.472656 13.046875 -14.074219 13.046875 -14.671875 C 13.046875 -15.398438 12.449219 -16 11.675781 -16 Z M 1.476562 -16 "/></g></g></g><g fill="#918dbf" fill-opacity="1"><g transform="translate(155.298569, 220.723507)"><g><path d="M 3.199219 0 C 3.949219 0 4.574219 -0.601562 4.574219 -1.351562 L 4.574219 -14.671875 C 4.574219 -15.421875 3.949219 -16 3.199219 -16 C 2.449219 -16 1.851562 -15.421875 1.851562 -14.671875 L 1.851562 -1.351562 C 1.851562 -0.601562 2.449219 0 3.199219 0 Z M 3.199219 0 "/></g></g></g><g fill="#918dbf" fill-opacity="1"><g transform="translate(167.097553, 220.723507)"><g><path d="M 14.296875 -16 C 13.546875 -16 12.921875 -15.421875 12.921875 -14.671875 L 12.921875 -4.875 L 4.273438 -15.5 C 3.851562 -16 3.175781 -16.097656 2.675781 -15.898438 C 2.199219 -15.699219 1.851562 -15.25 1.851562 -14.625 L 1.851562 -1.351562 C 1.851562 -0.601562 2.449219 0 3.199219 0 C 3.949219 0 4.574219 -0.601562 4.574219 -1.351562 L 4.574219 -11.25 L 13.324219 -0.523438 C 13.75 0.0234375 14.347656 0.125 14.796875 -0.101562 C 15.273438 -0.300781 15.648438 -0.773438 15.648438 -1.351562 L 15.648438 -14.671875 C 15.648438 -15.421875 15.074219 -16 14.296875 -16 Z M 14.296875 -16 "/></g></g></g><g fill="#918dbf" fill-opacity="1"><g transform="translate(189.994776, 220.723507)"><g><path d="M 9.097656 0.199219 C 11.273438 0.199219 12.949219 -0.425781 14.75 -1.898438 C 15.25 -2.273438 15.398438 -2.699219 15.398438 -3.226562 L 15.398438 -6.972656 C 15.398438 -7.699219 14.773438 -8.300781 14 -8.300781 L 10.347656 -8.300781 C 9.597656 -8.300781 9.023438 -7.75 9.023438 -7.023438 C 9.023438 -6.449219 9.597656 -5.875 10.347656 -5.875 L 12.824219 -5.875 L 12.824219 -3.625 C 11.898438 -2.726562 10.574219 -2.375 9.175781 -2.375 C 6.148438 -2.375 3.851562 -4.949219 3.851562 -7.972656 C 3.851562 -11.324219 6.300781 -13.648438 9.199219 -13.648438 C 10.625 -13.648438 11.949219 -13.023438 13.046875 -12.074219 C 13.625 -11.648438 14.523438 -11.574219 14.972656 -12.148438 C 15.398438 -12.722656 15.273438 -13.523438 14.671875 -14.023438 C 13 -15.546875 11.324219 -16.222656 9.175781 -16.222656 C 4.648438 -16.222656 1.125 -12.398438 1.125 -7.972656 C 1.125 -3.476562 4.800781 0.199219 9.097656 0.199219 Z M 9.097656 0.199219 "/></g></g></g><g fill="#918dbf" fill-opacity="1"><g transform="translate(211.917157, 220.723507)"><g/></g></g><g fill="#918dbf" fill-opacity="1"><g transform="translate(223.541172, 220.723507)"><g><path d="M 3.199219 -16 C 2.449219 -16 1.851562 -15.421875 1.851562 -14.671875 L 1.851562 -1.351562 C 1.851562 -0.601562 2.449219 0 3.199219 0 L 7.597656 0 C 12 0 15.699219 -3.574219 15.699219 -7.972656 C 15.699219 -12.375 12 -16 7.597656 -16 Z M 4.574219 -2.5 L 4.574219 -13.5 L 7.648438 -13.5 C 10.824219 -13.5 12.972656 -11 12.972656 -8 C 12.972656 -4.925781 10.824219 -2.5 7.648438 -2.5 Z M 4.574219 -2.5 "/></g></g></g><g fill="#918dbf" fill-opacity="1"><g transform="translate(245.763491, 220.723507)"><g><path d="M 3.199219 0 C 3.949219 0 4.574219 -0.601562 4.574219 -1.351562 L 4.574219 -14.671875 C 4.574219 -15.421875 3.949219 -16 3.199219 -16 C 2.449219 -16 1.851562 -15.421875 1.851562 -14.671875 L 1.851562 -1.351562 C 1.851562 -0.601562 2.449219 0 3.199219 0 Z M 3.199219 0 "/></g></g></g><g fill="#918dbf" fill-opacity="1"><g transform="translate(257.562463, 220.723507)"><g><path d="M 9.097656 0.199219 C 11.273438 0.199219 12.949219 -0.425781 14.75 -1.898438 C 15.25 -2.273438 15.398438 -2.699219 15.398438 -3.226562 L 15.398438 -6.972656 C 15.398438 -7.699219 14.773438 -8.300781 14 -8.300781 L 10.347656 -8.300781 C 9.597656 -8.300781 9.023438 -7.75 9.023438 -7.023438 C 9.023438 -6.449219 9.597656 -5.875 10.347656 -5.875 L 12.824219 -5.875 L 12.824219 -3.625 C 11.898438 -2.726562 10.574219 -2.375 9.175781 -2.375 C 6.148438 -2.375 3.851562 -4.949219 3.851562 -7.972656 C 3.851562 -11.324219 6.300781 -13.648438 9.199219 -13.648438 C 10.625 -13.648438 11.949219 -13.023438 13.046875 -12.074219 C 13.625 -11.648438 14.523438 -11.574219 14.972656 -12.148438 C 15.398438 -12.722656 15.273438 -13.523438 14.671875 -14.023438 C 13 -15.546875 11.324219 -16.222656 9.175781 -16.222656 C 4.648438 -16.222656 1.125 -12.398438 1.125 -7.972656 C 1.125 -3.476562 4.800781 0.199219 9.097656 0.199219 Z M 9.097656 0.199219 "/></g></g></g><g fill="#918dbf" fill-opacity="1"><g transform="translate(279.484833, 220.723507)"><g><path d="M 3.199219 0 C 3.949219 0 4.574219 -0.601562 4.574219 -1.351562 L 4.574219 -14.671875 C 4.574219 -15.421875 3.949219 -16 3.199219 -16 C 2.449219 -16 1.851562 -15.421875 1.851562 -14.671875 L 1.851562 -1.351562 C 1.851562 -0.601562 2.449219 0 3.199219 0 Z M 3.199219 0 "/></g></g></g><g fill="#918dbf" fill-opacity="1"><g transform="translate(291.283805, 220.723507)"><g><path d="M 1.476562 -16 C 0.726562 -16 0.125 -15.398438 0.125 -14.648438 C 0.125 -14.097656 0.726562 -13.472656 1.476562 -13.472656 L 5.222656 -13.472656 L 5.222656 -1.351562 C 5.222656 -0.601562 5.824219 0 6.574219 0 C 7.324219 0 7.949219 -0.601562 7.949219 -1.351562 L 7.949219 -13.472656 L 11.675781 -13.472656 C 12.449219 -13.472656 13.046875 -14.074219 13.046875 -14.671875 C 13.046875 -15.398438 12.449219 -16 11.675781 -16 Z M 1.476562 -16 "/></g></g></g><g fill="#918dbf" fill-opacity="1"><g transform="translate(309.856718, 220.723507)"><g><path d="M 9.148438 -14.75 C 8.773438 -15.671875 8.398438 -16 7.597656 -16 C 6.800781 -16 6.300781 -15.449219 6.023438 -14.722656 L 0.648438 -1.898438 C 0.273438 -0.949219 0.773438 0 1.851562 0 C 2.398438 0 2.875 -0.273438 3.101562 -0.824219 L 4 -3.125 L 11.25 -3.125 L 12.148438 -0.824219 C 12.324219 -0.300781 12.847656 0.0234375 13.398438 0 C 14.472656 0 14.972656 -1.101562 14.574219 -1.925781 Z M 7.625 -12.273438 L 10.25 -5.625 L 5 -5.625 Z M 7.625 -12.273438 "/></g></g></g><g fill="#918dbf" fill-opacity="1"><g transform="translate(330.47929, 220.723507)"><g><path d="M 4.574219 -2.5 L 4.574219 -14.648438 C 4.574219 -15.421875 3.949219 -16 3.199219 -16 C 2.449219 -16 1.851562 -15.421875 1.851562 -14.648438 L 1.851562 -1.351562 C 1.851562 -0.5 2.300781 0 3.199219 0 L 11.5 0 C 12.273438 0 12.847656 -0.601562 12.847656 -1.351562 C 12.847656 -1.875 12.25 -2.5 11.5 -2.5 Z M 4.574219 -2.5 "/></g></g></g><g fill="#ffffff" fill-opacity="1"><g transform="translate(145.124087, 167.916047)"><g><path d="M 7.53125 0 C 6.09375 0 4.988281 -0.390625 4.21875 -1.171875 C 3.457031 -1.960938 3.078125 -3.0625 3.078125 -4.46875 L 3.078125 -29.421875 C 3.078125 -30.859375 3.457031 -31.960938 4.21875 -32.734375 C 4.988281 -33.503906 6.078125 -33.890625 7.484375 -33.890625 C 8.890625 -33.890625 9.976562 -33.503906 10.75 -32.734375 C 11.519531 -31.960938 11.90625 -30.859375 11.90625 -29.421875 L 11.90625 -7.34375 L 23.609375 -7.34375 C 24.828125 -7.34375 25.765625 -7.019531 26.421875 -6.375 C 27.078125 -5.738281 27.40625 -4.847656 27.40625 -3.703125 C 27.40625 -2.515625 27.078125 -1.597656 26.421875 -0.953125 C 25.765625 -0.316406 24.828125 0 23.609375 0 Z M 7.53125 0 "/></g></g></g><g fill="#ffffff" fill-opacity="1"><g transform="translate(203.135615, 167.916047)"><g><path d="M 7.15625 0.4375 C 5.875 0.4375 4.890625 0.0820312 4.203125 -0.625 C 3.515625 -1.332031 3.171875 -2.320312 3.171875 -3.59375 L 3.171875 -30.234375 C 3.171875 -31.546875 3.535156 -32.546875 4.265625 -33.234375 C 5.003906 -33.921875 6.046875 -34.265625 7.390625 -34.265625 C 8.484375 -34.265625 9.363281 -34.046875 10.03125 -33.609375 C 10.707031 -33.179688 11.316406 -32.472656 11.859375 -31.484375 L 21.3125 -14.453125 L 30.765625 -31.484375 C 31.335938 -32.472656 31.953125 -33.179688 32.609375 -33.609375 C 33.265625 -34.046875 34.15625 -34.265625 35.28125 -34.265625 C 36.53125 -34.265625 37.503906 -33.921875 38.203125 -33.234375 C 38.910156 -32.546875 39.265625 -31.546875 39.265625 -30.234375 L 39.265625 -3.59375 C 39.265625 -2.320312 38.925781 -1.332031 38.25 -0.625 C 37.582031 0.0820312 36.59375 0.4375 35.28125 0.4375 C 34 0.4375 33.015625 0.0820312 32.328125 -0.625 C 31.640625 -1.332031 31.296875 -2.320312 31.296875 -3.59375 L 31.296875 -18.390625 L 24.578125 -6.671875 C 24.128906 -5.960938 23.65625 -5.429688 23.15625 -5.078125 C 22.664062 -4.734375 22.003906 -4.5625 21.171875 -4.5625 C 20.367188 -4.5625 19.710938 -4.734375 19.203125 -5.078125 C 18.691406 -5.429688 18.226562 -5.960938 17.8125 -6.671875 L 11.140625 -18.1875 L 11.140625 -3.59375 C 11.140625 -2.320312 10.800781 -1.332031 10.125 -0.625 C 9.457031 0.0820312 8.46875 0.4375 7.15625 0.4375 Z M 7.15625 0.4375 "/></g></g></g></svg>