<svg xmlns="http://www.w3.org/2000/svg" xmlns:xlink="http://www.w3.org/1999/xlink" width="500" zoomAndPan="magnify" viewBox="0 0 375 374.999991" height="500" preserveAspectRatio="xMidYMid meet" version="1.0"><defs><g/><clipPath id="2424ff7a92"><path d="M 105.84375 75.621094 L 146 75.621094 L 146 115 L 105.84375 115 Z M 105.84375 75.621094 " clip-rule="nonzero"/></clipPath><clipPath id="3626b23f8d"><path d="M 106 76 L 153.09375 76 L 153.09375 137 L 106 137 Z M 106 76 " clip-rule="nonzero"/></clipPath><clipPath id="f4cc6808bf"><path d="M 121 134 L 139 134 L 139 140.121094 L 121 140.121094 Z M 121 134 " clip-rule="nonzero"/></clipPath></defs><g clip-path="url(#2424ff7a92)"><path fill="#ffbd59" d="M 145.023438 95.140625 C 145.023438 95.78125 144.992188 96.417969 144.929688 97.054688 C 144.867188 97.691406 144.773438 98.320312 144.648438 98.949219 C 144.523438 99.574219 144.367188 100.195312 144.179688 100.804688 C 143.992188 101.417969 143.777344 102.019531 143.535156 102.609375 C 143.289062 103.199219 143.015625 103.777344 142.710938 104.339844 C 142.410156 104.90625 142.082031 105.453125 141.726562 105.984375 C 141.371094 106.515625 140.988281 107.027344 140.582031 107.523438 C 140.175781 108.015625 139.746094 108.488281 139.292969 108.941406 C 138.839844 109.394531 138.367188 109.824219 137.871094 110.226562 C 137.375 110.632812 136.859375 111.015625 136.328125 111.367188 C 135.796875 111.722656 135.246094 112.050781 134.679688 112.355469 C 134.117188 112.65625 133.539062 112.929688 132.945312 113.171875 C 132.355469 113.417969 131.75 113.632812 131.136719 113.816406 C 130.523438 114.003906 129.90625 114.160156 129.277344 114.285156 C 128.648438 114.40625 128.015625 114.5 127.378906 114.5625 C 126.738281 114.628906 126.101562 114.660156 125.460938 114.660156 C 124.820312 114.660156 124.179688 114.628906 123.542969 114.5625 C 122.90625 114.5 122.269531 114.40625 121.644531 114.285156 C 121.015625 114.160156 120.394531 114.003906 119.78125 113.816406 C 119.167969 113.632812 118.566406 113.417969 117.972656 113.171875 C 117.382812 112.929688 116.804688 112.65625 116.238281 112.355469 C 115.671875 112.050781 115.125 111.722656 114.589844 111.367188 C 114.058594 111.015625 113.542969 110.632812 113.050781 110.226562 C 112.554688 109.824219 112.078125 109.394531 111.625 108.941406 C 111.171875 108.488281 110.742188 108.015625 110.335938 107.523438 C 109.929688 107.027344 109.550781 106.515625 109.195312 105.984375 C 108.835938 105.453125 108.507812 104.90625 108.207031 104.339844 C 107.90625 103.777344 107.632812 103.199219 107.386719 102.609375 C 107.140625 102.019531 106.925781 101.417969 106.738281 100.804688 C 106.554688 100.195312 106.398438 99.574219 106.273438 98.949219 C 106.148438 98.320312 106.054688 97.691406 105.992188 97.054688 C 105.929688 96.417969 105.898438 95.78125 105.898438 95.140625 C 105.898438 94.5 105.929688 93.863281 105.992188 93.226562 C 106.054688 92.589844 106.148438 91.960938 106.273438 91.332031 C 106.398438 90.707031 106.554688 90.085938 106.738281 89.476562 C 106.925781 88.863281 107.140625 88.261719 107.386719 87.671875 C 107.632812 87.082031 107.90625 86.503906 108.207031 85.941406 C 108.507812 85.375 108.835938 84.828125 109.195312 84.296875 C 109.550781 83.765625 109.929688 83.253906 110.335938 82.757812 C 110.742188 82.265625 111.171875 81.792969 111.625 81.339844 C 112.078125 80.886719 112.554688 80.457031 113.050781 80.054688 C 113.542969 79.648438 114.058594 79.265625 114.589844 78.914062 C 115.125 78.558594 115.671875 78.230469 116.238281 77.925781 C 116.804688 77.625 117.382812 77.351562 117.972656 77.109375 C 118.566406 76.863281 119.167969 76.648438 119.78125 76.464844 C 120.394531 76.277344 121.015625 76.121094 121.644531 76 C 122.269531 75.875 122.90625 75.78125 123.542969 75.71875 C 124.179688 75.65625 124.820312 75.621094 125.460938 75.621094 C 126.101562 75.621094 126.738281 75.65625 127.378906 75.71875 C 128.015625 75.78125 128.648438 75.875 129.277344 76 C 129.90625 76.121094 130.523438 76.277344 131.136719 76.464844 C 131.75 76.648438 132.355469 76.863281 132.945312 77.109375 C 133.539062 77.351562 134.117188 77.625 134.679688 77.925781 C 135.246094 78.230469 135.796875 78.558594 136.328125 78.914062 C 136.859375 79.265625 137.375 79.648438 137.871094 80.054688 C 138.367188 80.457031 138.839844 80.886719 139.292969 81.339844 C 139.746094 81.792969 140.175781 82.265625 140.582031 82.757812 C 140.988281 83.253906 141.371094 83.765625 141.726562 84.296875 C 142.082031 84.828125 142.410156 85.375 142.710938 85.941406 C 143.015625 86.503906 143.289062 87.082031 143.535156 87.671875 C 143.777344 88.261719 143.992188 88.863281 144.179688 89.476562 C 144.367188 90.085938 144.523438 90.707031 144.648438 91.332031 C 144.773438 91.960938 144.867188 92.589844 144.929688 93.226562 C 144.992188 93.863281 145.023438 94.5 145.023438 95.140625 Z M 145.023438 95.140625 " fill-opacity="1" fill-rule="nonzero"/></g><g clip-path="url(#3626b23f8d)"><path fill="#04182d" d="M 140.832031 136.246094 L 118.820312 136.246094 C 118.449219 136.246094 118.144531 135.945312 118.144531 135.570312 L 118.144531 123.035156 C 118.144531 120.871094 117.144531 118.839844 115.398438 117.453125 C 109.132812 112.488281 105.902344 104.765625 106.753906 96.789062 C 107.921875 85.828125 117.132812 76.988281 128.175781 76.226562 C 134.691406 75.773438 140.902344 77.964844 145.65625 82.390625 C 150.347656 86.757812 153.035156 92.929688 153.035156 99.324219 C 153.035156 106.433594 149.828125 113.050781 144.230469 117.472656 C 142.5 118.84375 141.507812 120.867188 141.507812 123.03125 L 141.507812 135.570312 C 141.507812 135.945312 141.203125 136.246094 140.832031 136.246094 Z M 119.5 134.894531 L 140.152344 134.894531 L 140.152344 123.03125 C 140.152344 120.453125 141.332031 118.042969 143.390625 116.414062 C 148.660156 112.25 151.679688 106.019531 151.679688 99.324219 C 151.679688 93.300781 149.148438 87.488281 144.734375 83.378906 C 140.257812 79.210938 134.417969 77.152344 128.269531 77.570312 C 117.871094 78.289062 109.199219 86.613281 108.097656 96.933594 C 107.296875 104.445312 110.339844 111.722656 116.238281 116.398438 C 118.3125 118.039062 119.5 120.457031 119.5 123.035156 Z M 119.5 134.894531 " fill-opacity="1" fill-rule="nonzero"/></g><g clip-path="url(#f4cc6808bf)"><path fill="#04182d" d="M 129.660156 140.121094 C 124.855469 140.121094 121.089844 138.125 121.089844 135.570312 C 121.089844 135.199219 121.394531 134.894531 121.769531 134.894531 C 122.140625 134.894531 122.445312 135.199219 122.445312 135.570312 C 122.445312 137.085938 125.410156 138.773438 129.660156 138.773438 C 133.914062 138.773438 136.878906 137.085938 136.878906 135.570312 C 136.878906 135.199219 137.183594 134.894531 137.554688 134.894531 C 137.929688 134.894531 138.230469 135.199219 138.230469 135.570312 C 138.230469 138.125 134.46875 140.121094 129.660156 140.121094 Z M 129.660156 140.121094 " fill-opacity="1" fill-rule="nonzero"/></g><path fill="#04182d" d="M 116.203125 123.707031 C 115.847656 123.707031 115.550781 123.4375 115.527344 123.082031 C 115.5 122.707031 115.78125 122.386719 116.15625 122.359375 L 143.402344 120.476562 C 143.789062 120.453125 144.101562 120.730469 144.125 121.101562 C 144.152344 121.476562 143.871094 121.796875 143.496094 121.824219 L 116.25 123.707031 C 116.234375 123.707031 116.21875 123.707031 116.203125 123.707031 Z M 116.203125 123.707031 " fill-opacity="1" fill-rule="nonzero"/><path fill="#04182d" d="M 116.203125 128.027344 C 115.847656 128.027344 115.550781 127.753906 115.527344 127.398438 C 115.5 127.027344 115.78125 126.703125 116.15625 126.679688 L 143.402344 124.796875 C 143.789062 124.777344 144.101562 125.050781 144.125 125.421875 C 144.152344 125.792969 143.871094 126.117188 143.496094 126.144531 L 116.25 128.027344 C 116.234375 128.027344 116.21875 128.027344 116.203125 128.027344 Z M 116.203125 128.027344 " fill-opacity="1" fill-rule="nonzero"/><path fill="#04182d" d="M 116.203125 132.347656 C 115.847656 132.347656 115.550781 132.074219 115.527344 131.71875 C 115.5 131.347656 115.78125 131.023438 116.15625 131 L 143.402344 129.113281 C 143.789062 129.089844 144.101562 129.371094 144.125 129.742188 C 144.152344 130.113281 143.871094 130.4375 143.496094 130.460938 L 116.25 132.347656 C 116.234375 132.347656 116.21875 132.347656 116.203125 132.347656 Z M 116.203125 132.347656 " fill-opacity="1" fill-rule="nonzero"/><g fill="#ffde59" fill-opacity="1"><g transform="translate(174.877174, 211.181321)"><g><path d="M 14.136719 -58.140625 C 8.683594 -58.378906 5.722656 -55.03125 5.492188 -49.746094 L 3.652344 -7.785156 C 3.425781 -2.664062 6.078125 1.09375 11.527344 1.332031 C 16.980469 1.574219 19.949219 -1.9375 20.171875 -7.058594 L 22.011719 -49.023438 C 22.246094 -54.308594 19.589844 -57.902344 14.136719 -58.140625 Z M 14.136719 -58.140625 "/></g></g></g><g fill="#5ce1e6" fill-opacity="1"><g transform="translate(117.775782, 213.670025)"><g><path d="M 11.574219 -58.703125 C 6.117188 -58.703125 3.308594 -55.230469 3.308594 -49.9375 L 3.308594 -7.9375 C 3.308594 -2.8125 6.117188 0.828125 11.574219 0.828125 C 17.03125 0.828125 19.84375 -2.8125 19.84375 -7.9375 L 19.84375 -49.9375 C 19.84375 -55.230469 17.03125 -58.703125 11.574219 -58.703125 Z M 11.574219 -58.703125 "/></g></g></g><g fill="#ff8bd2" fill-opacity="1"><g transform="translate(234.07851, 213.670025)"><g><path d="M 11.574219 -58.703125 C 6.117188 -58.703125 3.308594 -55.230469 3.308594 -49.9375 L 3.308594 -7.9375 C 3.308594 -2.8125 6.117188 0.828125 11.574219 0.828125 C 17.03125 0.828125 19.84375 -2.8125 19.84375 -7.9375 L 19.84375 -49.9375 C 19.84375 -55.230469 17.03125 -58.703125 11.574219 -58.703125 Z M 11.574219 -58.703125 "/></g></g></g><path stroke-linecap="butt" transform="matrix(0.692777, 0, 0, 0.692777, 112.479532, 115.104813)" fill="none" stroke-linejoin="miter" d="M 22.386359 42.983543 C 11.340457 42.983543 5.978205 49.83437 5.978205 60.299502 L 5.978205 131.683428 C 5.978205 142.14856 11.340457 148.999387 22.386359 148.999387 L 71.966048 148.999387 C 80.023523 148.999387 86.620616 142.436126 86.620616 134.378651 C 86.620616 126.287345 80.023523 119.724083 71.966048 119.724083 L 38.828344 119.724083 L 38.828344 60.299502 C 38.828344 49.83437 33.466091 42.983543 22.386359 42.983543 Z M 115.591438 42.983543 C 107.206928 42.983543 100.356101 49.2536 99.442657 57.311075 L 91.965952 132.557402 C 91.965952 133.177642 91.678387 133.758411 91.678387 134.378651 C 91.678387 143.642773 98.568684 150.4936 107.827168 150.4936 C 116.465412 150.4936 123.028674 144.516747 123.942117 135.872864 L 126.63734 102.11492 L 137.06864 127.200788 C 139.183093 132.557402 143.958937 135.545829 150.809764 135.545829 C 157.406857 135.545829 162.475905 132.557402 164.556527 127.200788 L 175.01602 102.11492 L 177.716881 135.872864 C 178.590855 144.516747 185.154116 150.4936 193.83183 150.4936 C 203.090314 150.4936 209.94678 143.642773 209.94678 134.378651 C 209.94678 133.758411 209.653576 133.177642 209.653576 132.557402 L 202.176871 57.311075 C 201.302897 48.960396 194.119396 42.983543 185.774356 42.983543 C 180.085068 42.983543 174.728454 45.971969 172.320797 51.041018 L 150.809764 94.931419 L 129.298731 51.041018 C 126.930544 45.971969 121.861496 42.983543 115.591438 42.983543 Z M 115.591438 42.983543 " stroke="#000000" stroke-width="2.706624" stroke-opacity="1" stroke-miterlimit="4"/><g fill="#000000" fill-opacity="1"><g transform="translate(93.919384, 243.849872)"><g><path d="M 3.457031 -12.78125 C 2.808594 -12.78125 2.230469 -12.292969 2.160156 -11.644531 L 0.757812 -1.261719 L 0.757812 -1.078125 C 0.757812 -0.34375 1.277344 0.179688 2.015625 0.179688 C 2.699219 0.179688 3.257812 -0.304688 3.3125 -0.988281 L 4.285156 -7.867188 L 6.496094 -2.304688 C 6.679688 -1.871094 7.039062 -1.621094 7.597656 -1.621094 C 8.117188 -1.621094 8.53125 -1.835938 8.710938 -2.304688 L 10.90625 -7.867188 L 11.878906 -0.988281 C 11.933594 -0.304688 12.492188 0.179688 13.175781 0.179688 C 13.914062 0.179688 14.4375 -0.378906 14.4375 -1.117188 L 14.4375 -1.261719 L 13.050781 -11.644531 C 12.976562 -12.292969 12.382812 -12.78125 11.734375 -12.78125 C 11.269531 -12.78125 10.835938 -12.5625 10.65625 -12.132812 L 7.613281 -5.074219 L 4.535156 -12.132812 C 4.355469 -12.527344 3.941406 -12.78125 3.457031 -12.78125 Z M 3.457031 -12.78125 "/></g></g></g><g fill="#000000" fill-opacity="1"><g transform="translate(109.075344, 243.849872)"><g><path d="M 6.121094 -12.78125 C 6.101562 -12.78125 6.085938 -12.78125 6.085938 -12.78125 C 5.578125 -12.78125 5.113281 -12.472656 4.894531 -12.023438 L 0.449219 -1.691406 C 0.359375 -1.492188 0.324219 -1.3125 0.324219 -1.117188 C 0.324219 -0.394531 0.898438 0.179688 1.621094 0.179688 C 2.160156 0.179688 2.609375 -0.0546875 2.808594 -0.574219 L 3.707031 -3.023438 L 8.460938 -3.023438 L 9.359375 -0.574219 C 9.558594 -0.0546875 10.007812 0.179688 10.546875 0.179688 C 11.269531 0.179688 11.863281 -0.394531 11.863281 -1.117188 C 11.863281 -1.3125 11.808594 -1.492188 11.71875 -1.691406 L 7.273438 -12.023438 C 7.054688 -12.472656 6.625 -12.761719 6.121094 -12.78125 Z M 7.722656 -5.058594 L 4.464844 -5.058594 L 6.101562 -9.503906 Z M 7.722656 -5.058594 "/></g></g></g><g fill="#000000" fill-opacity="1"><g transform="translate(121.207305, 243.849872)"><g><path d="M 8.441406 -5.507812 C 9.898438 -5.902344 10.835938 -7.109375 10.835938 -9.019531 C 10.835938 -11.375 9.394531 -12.601562 7.128906 -12.601562 L 2.410156 -12.601562 C 1.546875 -12.601562 1.097656 -12.058594 1.097656 -11.230469 L 1.097656 -1.1875 C 1.097656 -0.359375 1.546875 0.179688 2.410156 0.179688 C 3.277344 0.179688 3.707031 -0.359375 3.707031 -1.1875 L 3.707031 -4.699219 L 5.058594 -4.699219 C 5.886719 -4.699219 6.535156 -4.355469 6.929688 -3.671875 L 8.890625 -0.46875 C 9.109375 -0.0703125 9.558594 0.179688 9.988281 0.179688 C 10.691406 0.179688 11.304688 -0.414062 11.304688 -1.117188 C 11.304688 -1.367188 11.230469 -1.601562 11.089844 -1.816406 L 9.574219 -4.339844 C 9.269531 -4.859375 8.890625 -5.238281 8.441406 -5.507812 Z M 3.707031 -6.875 L 3.707031 -10.441406 L 6.445312 -10.441406 C 7.488281 -10.441406 8.207031 -9.792969 8.207031 -8.675781 C 8.207031 -7.558594 7.488281 -6.875 6.445312 -6.875 Z M 3.707031 -6.875 "/></g></g></g><g fill="#000000" fill-opacity="1"><g transform="translate(132.835268, 243.849872)"><g><path d="M 2.394531 -12.78125 C 1.53125 -12.78125 1.097656 -12.238281 1.097656 -11.410156 L 1.097656 -1.1875 C 1.097656 -0.359375 1.53125 0.179688 2.394531 0.179688 C 3.257812 0.179688 3.707031 -0.359375 3.707031 -1.1875 L 3.707031 -5.128906 L 5.941406 -5.128906 L 9.898438 -0.324219 C 10.132812 -0.0195312 10.492188 0.179688 10.90625 0.179688 C 11.59375 0.179688 12.167969 -0.378906 12.167969 -1.097656 C 12.167969 -1.386719 12.078125 -1.675781 11.878906 -1.90625 L 8.242188 -6.300781 L 11.878906 -10.691406 C 12.078125 -10.925781 12.167969 -11.214844 12.167969 -11.503906 C 12.167969 -12.222656 11.59375 -12.78125 10.90625 -12.78125 C 10.546875 -12.78125 10.152344 -12.601562 9.898438 -12.277344 L 5.941406 -7.46875 L 3.707031 -7.46875 L 3.707031 -11.410156 C 3.707031 -12.238281 3.257812 -12.78125 2.394531 -12.78125 Z M 2.394531 -12.78125 "/></g></g></g><g fill="#000000" fill-opacity="1"><g transform="translate(145.291234, 243.849872)"><g><path d="M 2.410156 -12.601562 C 1.546875 -12.601562 1.097656 -12.058594 1.097656 -11.230469 L 1.097656 -1.367188 C 1.097656 -0.539062 1.546875 0 2.410156 0 L 8.855469 0 C 9.433594 0 9.9375 -0.503906 9.9375 -1.078125 C 9.9375 -1.65625 9.433594 -2.160156 8.855469 -2.160156 L 3.707031 -2.160156 L 3.707031 -5.21875 L 7.054688 -5.21875 C 7.632812 -5.21875 8.136719 -5.722656 8.136719 -6.300781 C 8.136719 -6.875 7.632812 -7.378906 7.054688 -7.378906 L 3.707031 -7.378906 L 3.707031 -10.441406 L 8.855469 -10.441406 C 9.433594 -10.441406 9.9375 -10.945312 9.9375 -11.519531 C 9.9375 -12.097656 9.433594 -12.601562 8.855469 -12.601562 Z M 2.410156 -12.601562 "/></g></g></g><g fill="#000000" fill-opacity="1"><g transform="translate(155.767201, 243.849872)"><g><path d="M 1.476562 -12.601562 C 0.828125 -12.601562 0.324219 -12.078125 0.324219 -11.429688 C 0.324219 -10.78125 0.828125 -10.261719 1.476562 -10.261719 L 3.886719 -10.261719 L 3.886719 -1.1875 C 3.886719 -0.359375 4.320312 0.179688 5.183594 0.179688 C 6.046875 0.179688 6.496094 -0.359375 6.496094 -1.1875 L 6.496094 -10.261719 L 8.890625 -10.261719 C 9.539062 -10.261719 10.0625 -10.78125 10.0625 -11.429688 C 10.0625 -12.078125 9.539062 -12.601562 8.890625 -12.601562 Z M 1.476562 -12.601562 "/></g></g></g><g fill="#000000" fill-opacity="1"><g transform="translate(166.099167, 243.849872)"><g><path d="M 1.476562 -12.601562 C 0.828125 -12.601562 0.324219 -12.078125 0.324219 -11.429688 C 0.324219 -10.78125 0.828125 -10.261719 1.476562 -10.261719 L 2.84375 -10.261719 L 2.84375 -2.339844 L 1.476562 -2.339844 C 0.828125 -2.339844 0.324219 -1.816406 0.324219 -1.171875 C 0.324219 -0.523438 0.828125 0 1.476562 0 L 6.820312 0 C 7.46875 0 7.992188 -0.523438 7.992188 -1.171875 C 7.992188 -1.816406 7.46875 -2.339844 6.820312 -2.339844 L 5.4375 -2.339844 L 5.4375 -10.261719 L 6.820312 -10.261719 C 7.46875 -10.261719 7.992188 -10.78125 7.992188 -11.429688 C 7.992188 -12.078125 7.46875 -12.601562 6.820312 -12.601562 Z M 1.476562 -12.601562 "/></g></g></g><g fill="#000000" fill-opacity="1"><g transform="translate(174.379138, 243.849872)"><g><path d="M 2.394531 -12.761719 C 1.675781 -12.761719 1.097656 -12.203125 1.097656 -11.484375 L 1.097656 -1.117188 C 1.097656 -0.394531 1.675781 0.179688 2.394531 0.179688 C 3.113281 0.179688 3.707031 -0.394531 3.707031 -1.117188 L 3.707031 -8.152344 L 9.433594 -0.289062 C 9.664062 0.0195312 10.042969 0.160156 10.441406 0.160156 C 11.160156 0.160156 11.734375 -0.394531 11.734375 -1.117188 L 11.734375 -11.484375 C 11.734375 -12.203125 11.160156 -12.78125 10.441406 -12.78125 C 9.703125 -12.78125 9.125 -12.203125 9.125 -11.484375 L 9.125 -4.445312 L 3.402344 -12.3125 C 3.167969 -12.617188 2.789062 -12.761719 2.394531 -12.761719 Z M 2.394531 -12.761719 "/></g></g></g><g fill="#000000" fill-opacity="1"><g transform="translate(187.195101, 243.849872)"><g><path d="M 7.09375 -12.78125 C 3.3125 -12.78125 0.757812 -10.296875 0.757812 -6.300781 C 0.757812 -2.449219 3.148438 0.179688 7.09375 0.179688 C 9.179688 0.179688 10.65625 -0.503906 11.773438 -1.726562 C 12.203125 -2.195312 12.421875 -2.519531 12.421875 -3.238281 L 12.421875 -6.085938 C 12.421875 -6.859375 11.933594 -7.378906 11.105469 -7.378906 L 7.164062 -7.378906 C 6.535156 -7.378906 6.046875 -6.910156 6.046875 -6.300781 C 6.046875 -5.6875 6.535156 -5.21875 7.164062 -5.21875 L 9.792969 -5.21875 L 9.792969 -3.097656 C 9.179688 -2.410156 8.296875 -2.015625 7.09375 -2.015625 C 4.734375 -2.015625 3.382812 -3.671875 3.382812 -6.300781 C 3.382812 -8.964844 4.753906 -10.585938 7.09375 -10.585938 C 8.605469 -10.585938 9.574219 -10.117188 10.1875 -9.792969 C 10.3125 -9.71875 10.441406 -9.71875 10.585938 -9.71875 C 11.195312 -9.71875 11.609375 -10.078125 11.609375 -10.726562 C 11.609375 -11.125 11.449219 -11.449219 11.089844 -11.664062 C 10.222656 -12.277344 8.910156 -12.78125 7.09375 -12.78125 Z M 7.09375 -12.78125 "/></g></g></g><g fill="#000000" fill-opacity="1"><g transform="translate(200.335058, 243.849872)"><g/></g></g><g fill="#000000" fill-opacity="1"><g transform="translate(205.267037, 243.849872)"><g><path d="M 3.257812 -12.601562 L 2.394531 -12.601562 C 1.53125 -12.601562 1.097656 -12.058594 1.097656 -11.230469 L 1.097656 -1.367188 C 1.097656 -0.539062 1.53125 0 2.394531 0 L 7.234375 0 C 10.816406 0 12.726562 -3.058594 12.726562 -6.300781 C 12.726562 -9.539062 10.78125 -12.601562 7.234375 -12.601562 Z M 3.707031 -2.339844 L 3.707031 -10.261719 L 6.679688 -10.261719 C 8.765625 -10.261719 10.117188 -8.566406 10.117188 -6.300781 C 10.117188 -4.03125 8.820312 -2.339844 6.679688 -2.339844 Z M 3.707031 -2.339844 "/></g></g></g><g fill="#000000" fill-opacity="1"><g transform="translate(218.730999, 243.849872)"><g><path d="M 1.476562 -12.601562 C 0.828125 -12.601562 0.324219 -12.078125 0.324219 -11.429688 C 0.324219 -10.78125 0.828125 -10.261719 1.476562 -10.261719 L 2.84375 -10.261719 L 2.84375 -2.339844 L 1.476562 -2.339844 C 0.828125 -2.339844 0.324219 -1.816406 0.324219 -1.171875 C 0.324219 -0.523438 0.828125 0 1.476562 0 L 6.820312 0 C 7.46875 0 7.992188 -0.523438 7.992188 -1.171875 C 7.992188 -1.816406 7.46875 -2.339844 6.820312 -2.339844 L 5.4375 -2.339844 L 5.4375 -10.261719 L 6.820312 -10.261719 C 7.46875 -10.261719 7.992188 -10.78125 7.992188 -11.429688 C 7.992188 -12.078125 7.46875 -12.601562 6.820312 -12.601562 Z M 1.476562 -12.601562 "/></g></g></g><g fill="#000000" fill-opacity="1"><g transform="translate(227.010971, 243.849872)"><g><path d="M 7.09375 -12.78125 C 3.3125 -12.78125 0.757812 -10.296875 0.757812 -6.300781 C 0.757812 -2.449219 3.148438 0.179688 7.09375 0.179688 C 9.179688 0.179688 10.65625 -0.503906 11.773438 -1.726562 C 12.203125 -2.195312 12.421875 -2.519531 12.421875 -3.238281 L 12.421875 -6.085938 C 12.421875 -6.859375 11.933594 -7.378906 11.105469 -7.378906 L 7.164062 -7.378906 C 6.535156 -7.378906 6.046875 -6.910156 6.046875 -6.300781 C 6.046875 -5.6875 6.535156 -5.21875 7.164062 -5.21875 L 9.792969 -5.21875 L 9.792969 -3.097656 C 9.179688 -2.410156 8.296875 -2.015625 7.09375 -2.015625 C 4.734375 -2.015625 3.382812 -3.671875 3.382812 -6.300781 C 3.382812 -8.964844 4.753906 -10.585938 7.09375 -10.585938 C 8.605469 -10.585938 9.574219 -10.117188 10.1875 -9.792969 C 10.3125 -9.71875 10.441406 -9.71875 10.585938 -9.71875 C 11.195312 -9.71875 11.609375 -10.078125 11.609375 -10.726562 C 11.609375 -11.125 11.449219 -11.449219 11.089844 -11.664062 C 10.222656 -12.277344 8.910156 -12.78125 7.09375 -12.78125 Z M 7.09375 -12.78125 "/></g></g></g><g fill="#000000" fill-opacity="1"><g transform="translate(240.150927, 243.849872)"><g><path d="M 1.476562 -12.601562 C 0.828125 -12.601562 0.324219 -12.078125 0.324219 -11.429688 C 0.324219 -10.78125 0.828125 -10.261719 1.476562 -10.261719 L 2.84375 -10.261719 L 2.84375 -2.339844 L 1.476562 -2.339844 C 0.828125 -2.339844 0.324219 -1.816406 0.324219 -1.171875 C 0.324219 -0.523438 0.828125 0 1.476562 0 L 6.820312 0 C 7.46875 0 7.992188 -0.523438 7.992188 -1.171875 C 7.992188 -1.816406 7.46875 -2.339844 6.820312 -2.339844 L 5.4375 -2.339844 L 5.4375 -10.261719 L 6.820312 -10.261719 C 7.46875 -10.261719 7.992188 -10.78125 7.992188 -11.429688 C 7.992188 -12.078125 7.46875 -12.601562 6.820312 -12.601562 Z M 1.476562 -12.601562 "/></g></g></g><g fill="#000000" fill-opacity="1"><g transform="translate(248.430899, 243.849872)"><g><path d="M 1.476562 -12.601562 C 0.828125 -12.601562 0.324219 -12.078125 0.324219 -11.429688 C 0.324219 -10.78125 0.828125 -10.261719 1.476562 -10.261719 L 3.886719 -10.261719 L 3.886719 -1.1875 C 3.886719 -0.359375 4.320312 0.179688 5.183594 0.179688 C 6.046875 0.179688 6.496094 -0.359375 6.496094 -1.1875 L 6.496094 -10.261719 L 8.890625 -10.261719 C 9.539062 -10.261719 10.0625 -10.78125 10.0625 -11.429688 C 10.0625 -12.078125 9.539062 -12.601562 8.890625 -12.601562 Z M 1.476562 -12.601562 "/></g></g></g><g fill="#000000" fill-opacity="1"><g transform="translate(258.762864, 243.849872)"><g><path d="M 6.121094 -12.78125 C 6.101562 -12.78125 6.085938 -12.78125 6.085938 -12.78125 C 5.578125 -12.78125 5.113281 -12.472656 4.894531 -12.023438 L 0.449219 -1.691406 C 0.359375 -1.492188 0.324219 -1.3125 0.324219 -1.117188 C 0.324219 -0.394531 0.898438 0.179688 1.621094 0.179688 C 2.160156 0.179688 2.609375 -0.0546875 2.808594 -0.574219 L 3.707031 -3.023438 L 8.460938 -3.023438 L 9.359375 -0.574219 C 9.558594 -0.0546875 10.007812 0.179688 10.546875 0.179688 C 11.269531 0.179688 11.863281 -0.394531 11.863281 -1.117188 C 11.863281 -1.3125 11.808594 -1.492188 11.71875 -1.691406 L 7.273438 -12.023438 C 7.054688 -12.472656 6.625 -12.761719 6.121094 -12.78125 Z M 7.722656 -5.058594 L 4.464844 -5.058594 L 6.101562 -9.503906 Z M 7.722656 -5.058594 "/></g></g></g><g fill="#000000" fill-opacity="1"><g transform="translate(270.894825, 243.849872)"><g><path d="M 2.394531 -12.78125 C 1.53125 -12.78125 1.097656 -12.238281 1.097656 -11.410156 L 1.097656 -1.367188 C 1.097656 -0.539062 1.53125 0 2.394531 0 L 8.746094 0 C 9.394531 0 9.9375 -0.523438 9.9375 -1.171875 C 9.9375 -1.816406 9.394531 -2.339844 8.746094 -2.339844 L 3.707031 -2.339844 L 3.707031 -11.410156 C 3.707031 -12.238281 3.257812 -12.78125 2.394531 -12.78125 Z M 2.394531 -12.78125 "/></g></g></g></svg>