<svg xmlns="http://www.w3.org/2000/svg" xmlns:xlink="http://www.w3.org/1999/xlink" width="500" zoomAndPan="magnify" viewBox="0 0 375 374.999991" height="500" preserveAspectRatio="xMidYMid meet" version="1.0"><defs><g/><clipPath id="9c506fd95a"><path d="M 153.707031 131.40625 L 170 131.40625 L 170 148 L 153.707031 148 Z M 153.707031 131.40625 " clip-rule="nonzero"/></clipPath><clipPath id="ab2408e44e"><path d="M 154 131.40625 L 173.207031 131.40625 L 173.207031 157 L 154 157 Z M 154 131.40625 " clip-rule="nonzero"/></clipPath><clipPath id="5ab4bed9d1"><path d="M 160 155 L 168 155 L 168 157.65625 L 160 157.65625 Z M 160 155 " clip-rule="nonzero"/></clipPath></defs><g clip-path="url(#9c506fd95a)"><path fill="#ffbd59" d="M 169.875 139.351562 C 169.875 139.871094 169.824219 140.390625 169.71875 140.902344 C 169.617188 141.414062 169.464844 141.910156 169.261719 142.390625 C 169.058594 142.871094 168.808594 143.332031 168.515625 143.765625 C 168.21875 144.199219 167.886719 144.597656 167.511719 144.96875 C 167.136719 145.335938 166.726562 145.667969 166.289062 145.957031 C 165.847656 146.246094 165.382812 146.492188 164.890625 146.691406 C 164.402344 146.890625 163.898438 147.039062 163.378906 147.140625 C 162.859375 147.242188 162.332031 147.292969 161.800781 147.292969 C 161.273438 147.292969 160.746094 147.242188 160.226562 147.140625 C 159.707031 147.039062 159.203125 146.890625 158.714844 146.691406 C 158.222656 146.492188 157.757812 146.246094 157.316406 145.957031 C 156.878906 145.667969 156.46875 145.335938 156.09375 144.96875 C 155.71875 144.597656 155.386719 144.199219 155.089844 143.765625 C 154.796875 143.332031 154.546875 142.871094 154.34375 142.390625 C 154.140625 141.910156 153.988281 141.414062 153.886719 140.902344 C 153.78125 140.390625 153.730469 139.871094 153.730469 139.351562 C 153.730469 138.828125 153.78125 138.3125 153.886719 137.800781 C 153.988281 137.289062 154.140625 136.792969 154.34375 136.3125 C 154.546875 135.828125 154.796875 135.371094 155.089844 134.9375 C 155.386719 134.503906 155.71875 134.101562 156.09375 133.734375 C 156.46875 133.367188 156.878906 133.035156 157.316406 132.746094 C 157.757812 132.457031 158.222656 132.210938 158.714844 132.011719 C 159.203125 131.8125 159.707031 131.664062 160.226562 131.5625 C 160.746094 131.460938 161.273438 131.40625 161.800781 131.40625 C 162.332031 131.40625 162.859375 131.460938 163.378906 131.5625 C 163.898438 131.664062 164.402344 131.8125 164.890625 132.011719 C 165.382812 132.210938 165.847656 132.457031 166.289062 132.746094 C 166.726562 133.035156 167.136719 133.367188 167.511719 133.734375 C 167.886719 134.101562 168.21875 134.503906 168.515625 134.9375 C 168.808594 135.371094 169.058594 135.828125 169.261719 136.3125 C 169.464844 136.792969 169.617188 137.289062 169.71875 137.800781 C 169.824219 138.3125 169.875 138.828125 169.875 139.351562 Z M 169.875 139.351562 " fill-opacity="1" fill-rule="nonzero"/></g><g clip-path="url(#ab2408e44e)"><path fill="#04182d" d="M 168.144531 156.082031 L 159.0625 156.082031 C 158.910156 156.082031 158.785156 155.957031 158.785156 155.804688 L 158.785156 150.703125 C 158.785156 149.824219 158.371094 148.996094 157.652344 148.433594 C 155.066406 146.410156 153.730469 143.269531 154.082031 140.023438 C 154.566406 135.5625 158.367188 131.964844 162.925781 131.652344 C 165.613281 131.46875 168.175781 132.359375 170.136719 134.164062 C 172.070312 135.9375 173.183594 138.449219 173.183594 141.054688 C 173.183594 143.949219 171.859375 146.640625 169.546875 148.441406 C 168.835938 148.996094 168.425781 149.820312 168.425781 150.703125 L 168.425781 155.804688 C 168.425781 155.957031 168.300781 156.082031 168.144531 156.082031 Z M 159.34375 155.53125 L 167.867188 155.53125 L 167.867188 150.703125 C 167.867188 149.652344 168.351562 148.671875 169.203125 148.007812 C 171.375 146.3125 172.625 143.777344 172.625 141.054688 C 172.625 138.601562 171.578125 136.238281 169.757812 134.5625 C 167.910156 132.867188 165.5 132.03125 162.960938 132.203125 C 158.671875 132.492188 155.09375 135.878906 154.640625 140.082031 C 154.308594 143.136719 155.5625 146.097656 158 148.003906 C 158.851562 148.671875 159.34375 149.65625 159.34375 150.703125 Z M 159.34375 155.53125 " fill-opacity="1" fill-rule="nonzero"/></g><g clip-path="url(#5ab4bed9d1)"><path fill="#04182d" d="M 163.535156 157.65625 C 161.554688 157.65625 160 156.84375 160 155.804688 C 160 155.652344 160.125 155.53125 160.277344 155.53125 C 160.433594 155.53125 160.558594 155.652344 160.558594 155.804688 C 160.558594 156.421875 161.78125 157.109375 163.535156 157.109375 C 165.292969 157.109375 166.515625 156.421875 166.515625 155.804688 C 166.515625 155.652344 166.640625 155.53125 166.792969 155.53125 C 166.949219 155.53125 167.074219 155.652344 167.074219 155.804688 C 167.074219 156.84375 165.519531 157.65625 163.535156 157.65625 Z M 163.535156 157.65625 " fill-opacity="1" fill-rule="nonzero"/></g><path fill="#04182d" d="M 157.980469 150.976562 C 157.835938 150.976562 157.714844 150.867188 157.703125 150.722656 C 157.695312 150.570312 157.808594 150.441406 157.964844 150.429688 L 169.207031 149.664062 C 169.367188 149.652344 169.496094 149.765625 169.503906 149.917969 C 169.515625 150.070312 169.398438 150.199219 169.246094 150.210938 L 158.003906 150.976562 C 157.996094 150.976562 157.988281 150.976562 157.980469 150.976562 Z M 157.980469 150.976562 " fill-opacity="1" fill-rule="nonzero"/><path fill="#04182d" d="M 157.980469 152.734375 C 157.835938 152.734375 157.714844 152.625 157.703125 152.480469 C 157.695312 152.328125 157.808594 152.195312 157.964844 152.1875 L 169.207031 151.421875 C 169.367188 151.414062 169.496094 151.523438 169.503906 151.675781 C 169.515625 151.828125 169.398438 151.957031 169.246094 151.96875 L 158.003906 152.734375 C 157.996094 152.734375 157.988281 152.734375 157.980469 152.734375 Z M 157.980469 152.734375 " fill-opacity="1" fill-rule="nonzero"/><path fill="#04182d" d="M 157.980469 154.492188 C 157.835938 154.492188 157.714844 154.382812 157.703125 154.238281 C 157.695312 154.085938 157.808594 153.957031 157.964844 153.945312 L 169.207031 153.179688 C 169.367188 153.167969 169.496094 153.28125 169.503906 153.433594 C 169.515625 153.585938 169.398438 153.714844 169.246094 153.726562 L 158.003906 154.492188 C 157.996094 154.492188 157.988281 154.492188 157.980469 154.492188 Z M 157.980469 154.492188 " fill-opacity="1" fill-rule="nonzero"/><g fill="#ffde59" fill-opacity="1"><g transform="translate(182.276124, 187.508142)"><g><path d="M 5.851562 -24.0625 C 3.59375 -24.160156 2.367188 -22.773438 2.273438 -20.585938 L 1.511719 -3.222656 C 1.417969 -1.101562 2.515625 0.453125 4.769531 0.550781 C 7.027344 0.652344 8.253906 -0.800781 8.347656 -2.921875 L 9.109375 -20.289062 C 9.207031 -22.476562 8.105469 -23.960938 5.851562 -24.0625 Z M 5.851562 -24.0625 "/></g></g></g><g fill="#5ce1e6" fill-opacity="1"><g transform="translate(158.645053, 188.538053)"><g><path d="M 4.789062 -24.292969 C 2.53125 -24.292969 1.367188 -22.855469 1.367188 -20.667969 L 1.367188 -3.285156 C 1.367188 -1.164062 2.53125 0.34375 4.789062 0.34375 C 7.046875 0.34375 8.210938 -1.164062 8.210938 -3.285156 L 8.210938 -20.667969 C 8.210938 -22.855469 7.046875 -24.292969 4.789062 -24.292969 Z M 4.789062 -24.292969 "/></g></g></g><g fill="#ff8bd2" fill-opacity="1"><g transform="translate(206.776241, 188.538053)"><g><path d="M 4.789062 -24.292969 C 2.53125 -24.292969 1.367188 -22.855469 1.367188 -20.667969 L 1.367188 -3.285156 C 1.367188 -1.164062 2.53125 0.34375 4.789062 0.34375 C 7.046875 0.34375 8.210938 -1.164062 8.210938 -3.285156 L 8.210938 -20.667969 C 8.210938 -22.855469 7.046875 -24.292969 4.789062 -24.292969 Z M 4.789062 -24.292969 "/></g></g></g><path stroke-linecap="butt" transform="matrix(0.286701, 0, 0, 0.286701, 156.453232, 147.747456)" fill="none" stroke-linejoin="miter" d="M 22.385173 42.981492 C 11.335461 42.981492 5.980914 49.834766 5.980914 60.298613 L 5.980914 131.678939 C 5.980914 142.142785 11.335461 148.996059 22.385173 148.996059 L 71.96582 148.996059 C 80.018076 148.996059 86.626104 142.44253 86.626104 134.376649 C 86.626104 126.283518 80.018076 119.729989 71.96582 119.729989 L 38.830307 119.729989 L 38.830307 60.298613 C 38.830307 49.834766 33.462136 42.981492 22.385173 42.981492 Z M 115.592429 42.981492 C 107.213177 42.981492 100.359902 49.2489 99.447041 57.314781 L 91.967026 132.550926 C 91.967026 133.177667 91.680905 133.763533 91.680905 134.376649 C 91.680905 143.641513 98.561429 150.494787 107.826293 150.494787 C 116.464416 150.494787 123.031569 144.5135 123.944431 135.875377 L 126.642141 102.113123 L 137.065113 127.196379 C 139.176957 132.550926 143.959262 135.548382 150.812536 135.548382 C 157.406939 135.548382 162.475365 132.550926 164.559959 127.196379 L 175.023805 102.113123 L 177.721515 135.875377 C 178.593503 144.5135 185.147031 150.494787 193.826029 150.494787 C 203.090893 150.494787 209.944167 143.641513 209.944167 134.376649 C 209.944167 133.763533 209.658046 133.177667 209.658046 132.550926 L 202.178031 57.314781 C 201.306044 48.962779 194.125774 42.981492 185.773772 42.981492 C 180.092231 42.981492 174.72406 45.965323 172.326095 51.033749 L 150.812536 94.932854 L 129.298977 51.033749 C 126.928262 45.965323 121.859836 42.981492 115.592429 42.981492 Z M 115.592429 42.981492 " stroke="#000000" stroke-width="2.706624" stroke-opacity="1" stroke-miterlimit="4"/><g fill="#000000" fill-opacity="1"><g transform="translate(148.772226, 201.027798)"><g><path d="M 1.429688 -5.289062 C 1.160156 -5.289062 0.921875 -5.085938 0.894531 -4.820312 L 0.3125 -0.519531 L 0.3125 -0.445312 C 0.3125 -0.140625 0.527344 0.0742188 0.835938 0.0742188 C 1.117188 0.0742188 1.347656 -0.125 1.371094 -0.410156 L 1.773438 -3.253906 L 2.6875 -0.953125 C 2.761719 -0.773438 2.914062 -0.671875 3.144531 -0.671875 C 3.359375 -0.671875 3.53125 -0.761719 3.605469 -0.953125 L 4.515625 -3.253906 L 4.917969 -0.410156 C 4.9375 -0.125 5.167969 0.0742188 5.453125 0.0742188 C 5.757812 0.0742188 5.972656 -0.15625 5.972656 -0.460938 L 5.972656 -0.519531 L 5.402344 -4.820312 C 5.371094 -5.085938 5.125 -5.289062 4.855469 -5.289062 C 4.664062 -5.289062 4.484375 -5.199219 4.410156 -5.019531 L 3.152344 -2.101562 L 1.878906 -5.019531 C 1.800781 -5.183594 1.632812 -5.289062 1.429688 -5.289062 Z M 1.429688 -5.289062 "/></g></g></g><g fill="#000000" fill-opacity="1"><g transform="translate(155.044428, 201.027798)"><g><path d="M 2.53125 -5.289062 C 2.523438 -5.289062 2.519531 -5.289062 2.519531 -5.289062 C 2.308594 -5.289062 2.117188 -5.164062 2.027344 -4.976562 L 0.1875 -0.699219 C 0.148438 -0.617188 0.132812 -0.542969 0.132812 -0.460938 C 0.132812 -0.164062 0.371094 0.0742188 0.671875 0.0742188 C 0.894531 0.0742188 1.082031 -0.0234375 1.160156 -0.238281 L 1.535156 -1.25 L 3.5 -1.25 L 3.875 -0.238281 C 3.957031 -0.0234375 4.140625 0.0742188 4.363281 0.0742188 C 4.664062 0.0742188 4.910156 -0.164062 4.910156 -0.460938 C 4.910156 -0.542969 4.886719 -0.617188 4.847656 -0.699219 L 3.007812 -4.976562 C 2.921875 -5.164062 2.742188 -5.28125 2.53125 -5.289062 Z M 3.195312 -2.09375 L 1.847656 -2.09375 L 2.523438 -3.933594 Z M 3.195312 -2.09375 "/></g></g></g><g fill="#000000" fill-opacity="1"><g transform="translate(160.065166, 201.027798)"><g><path d="M 3.492188 -2.28125 C 4.097656 -2.441406 4.484375 -2.941406 4.484375 -3.730469 C 4.484375 -4.707031 3.886719 -5.214844 2.949219 -5.214844 L 1 -5.214844 C 0.640625 -5.214844 0.453125 -4.992188 0.453125 -4.648438 L 0.453125 -0.492188 C 0.453125 -0.148438 0.640625 0.0742188 1 0.0742188 C 1.355469 0.0742188 1.535156 -0.148438 1.535156 -0.492188 L 1.535156 -1.945312 L 2.09375 -1.945312 C 2.4375 -1.945312 2.703125 -1.800781 2.867188 -1.519531 L 3.679688 -0.195312 C 3.769531 -0.03125 3.957031 0.0742188 4.132812 0.0742188 C 4.425781 0.0742188 4.679688 -0.171875 4.679688 -0.460938 C 4.679688 -0.566406 4.648438 -0.664062 4.589844 -0.753906 L 3.964844 -1.796875 C 3.835938 -2.011719 3.679688 -2.167969 3.492188 -2.28125 Z M 1.535156 -2.84375 L 1.535156 -4.320312 L 2.667969 -4.320312 C 3.097656 -4.320312 3.398438 -4.050781 3.398438 -3.589844 C 3.398438 -3.128906 3.097656 -2.84375 2.667969 -2.84375 Z M 1.535156 -2.84375 "/></g></g></g><g fill="#000000" fill-opacity="1"><g transform="translate(164.877328, 201.027798)"><g><path d="M 0.992188 -5.289062 C 0.632812 -5.289062 0.453125 -5.066406 0.453125 -4.722656 L 0.453125 -0.492188 C 0.453125 -0.148438 0.632812 0.0742188 0.992188 0.0742188 C 1.347656 0.0742188 1.535156 -0.148438 1.535156 -0.492188 L 1.535156 -2.121094 L 2.457031 -2.121094 L 4.097656 -0.132812 C 4.195312 -0.0078125 4.34375 0.0742188 4.515625 0.0742188 C 4.796875 0.0742188 5.035156 -0.15625 5.035156 -0.453125 C 5.035156 -0.574219 5 -0.691406 4.917969 -0.789062 L 3.410156 -2.605469 L 4.917969 -4.425781 C 5 -4.523438 5.035156 -4.640625 5.035156 -4.761719 C 5.035156 -5.058594 4.796875 -5.289062 4.515625 -5.289062 C 4.363281 -5.289062 4.203125 -5.214844 4.097656 -5.082031 L 2.457031 -3.089844 L 1.535156 -3.089844 L 1.535156 -4.722656 C 1.535156 -5.066406 1.347656 -5.289062 0.992188 -5.289062 Z M 0.992188 -5.289062 "/></g></g></g><g fill="#000000" fill-opacity="1"><g transform="translate(170.032154, 201.027798)"><g><path d="M 1 -5.214844 C 0.640625 -5.214844 0.453125 -4.992188 0.453125 -4.648438 L 0.453125 -0.566406 C 0.453125 -0.222656 0.640625 0 1 0 L 3.664062 0 C 3.902344 0 4.113281 -0.207031 4.113281 -0.445312 C 4.113281 -0.683594 3.902344 -0.894531 3.664062 -0.894531 L 1.535156 -0.894531 L 1.535156 -2.160156 L 2.921875 -2.160156 C 3.160156 -2.160156 3.367188 -2.367188 3.367188 -2.605469 C 3.367188 -2.84375 3.160156 -3.054688 2.921875 -3.054688 L 1.535156 -3.054688 L 1.535156 -4.320312 L 3.664062 -4.320312 C 3.902344 -4.320312 4.113281 -4.527344 4.113281 -4.765625 C 4.113281 -5.003906 3.902344 -5.214844 3.664062 -5.214844 Z M 1 -5.214844 "/></g></g></g><g fill="#000000" fill-opacity="1"><g transform="translate(174.367569, 201.027798)"><g><path d="M 0.609375 -5.214844 C 0.34375 -5.214844 0.132812 -5 0.132812 -4.730469 C 0.132812 -4.460938 0.34375 -4.246094 0.609375 -4.246094 L 1.609375 -4.246094 L 1.609375 -0.492188 C 1.609375 -0.148438 1.789062 0.0742188 2.144531 0.0742188 C 2.503906 0.0742188 2.6875 -0.148438 2.6875 -0.492188 L 2.6875 -4.246094 L 3.679688 -4.246094 C 3.949219 -4.246094 4.164062 -4.460938 4.164062 -4.730469 C 4.164062 -5 3.949219 -5.214844 3.679688 -5.214844 Z M 0.609375 -5.214844 "/></g></g></g><g fill="#000000" fill-opacity="1"><g transform="translate(178.64339, 201.027798)"><g><path d="M 0.609375 -5.214844 C 0.34375 -5.214844 0.132812 -5 0.132812 -4.730469 C 0.132812 -4.460938 0.34375 -4.246094 0.609375 -4.246094 L 1.175781 -4.246094 L 1.175781 -0.96875 L 0.609375 -0.96875 C 0.34375 -0.96875 0.132812 -0.753906 0.132812 -0.484375 C 0.132812 -0.214844 0.34375 0 0.609375 0 L 2.824219 0 C 3.089844 0 3.308594 -0.214844 3.308594 -0.484375 C 3.308594 -0.753906 3.089844 -0.96875 2.824219 -0.96875 L 2.25 -0.96875 L 2.25 -4.246094 L 2.824219 -4.246094 C 3.089844 -4.246094 3.308594 -4.460938 3.308594 -4.730469 C 3.308594 -5 3.089844 -5.214844 2.824219 -5.214844 Z M 0.609375 -5.214844 "/></g></g></g><g fill="#000000" fill-opacity="1"><g transform="translate(182.070006, 201.027798)"><g><path d="M 0.992188 -5.28125 C 0.691406 -5.28125 0.453125 -5.050781 0.453125 -4.753906 L 0.453125 -0.460938 C 0.453125 -0.164062 0.691406 0.0742188 0.992188 0.0742188 C 1.289062 0.0742188 1.535156 -0.164062 1.535156 -0.460938 L 1.535156 -3.375 L 3.902344 -0.121094 C 4 0.0078125 4.15625 0.0664062 4.320312 0.0664062 C 4.617188 0.0664062 4.855469 -0.164062 4.855469 -0.460938 L 4.855469 -4.753906 C 4.855469 -5.050781 4.617188 -5.289062 4.320312 -5.289062 C 4.015625 -5.289062 3.777344 -5.050781 3.777344 -4.753906 L 3.777344 -1.839844 L 1.40625 -5.09375 C 1.3125 -5.222656 1.15625 -5.28125 0.992188 -5.28125 Z M 0.992188 -5.28125 "/></g></g></g><g fill="#000000" fill-opacity="1"><g transform="translate(187.373814, 201.027798)"><g><path d="M 2.933594 -5.289062 C 1.371094 -5.289062 0.3125 -4.261719 0.3125 -2.605469 C 0.3125 -1.011719 1.304688 0.0742188 2.933594 0.0742188 C 3.800781 0.0742188 4.410156 -0.207031 4.871094 -0.714844 C 5.050781 -0.910156 5.140625 -1.042969 5.140625 -1.339844 L 5.140625 -2.519531 C 5.140625 -2.839844 4.9375 -3.054688 4.597656 -3.054688 L 2.964844 -3.054688 C 2.703125 -3.054688 2.503906 -2.859375 2.503906 -2.605469 C 2.503906 -2.355469 2.703125 -2.160156 2.964844 -2.160156 L 4.050781 -2.160156 L 4.050781 -1.28125 C 3.800781 -1 3.433594 -0.835938 2.933594 -0.835938 C 1.960938 -0.835938 1.402344 -1.519531 1.402344 -2.605469 C 1.402344 -3.710938 1.964844 -4.378906 2.933594 -4.378906 C 3.5625 -4.378906 3.964844 -4.1875 4.214844 -4.050781 C 4.269531 -4.023438 4.320312 -4.023438 4.378906 -4.023438 C 4.632812 -4.023438 4.804688 -4.171875 4.804688 -4.441406 C 4.804688 -4.605469 4.738281 -4.738281 4.589844 -4.828125 C 4.230469 -5.082031 3.6875 -5.289062 2.933594 -5.289062 Z M 2.933594 -5.289062 "/></g></g></g><g fill="#000000" fill-opacity="1"><g transform="translate(192.811705, 201.027798)"><g/></g></g><g fill="#000000" fill-opacity="1"><g transform="translate(194.852775, 201.027798)"><g><path d="M 1.347656 -5.214844 L 0.992188 -5.214844 C 0.632812 -5.214844 0.453125 -4.992188 0.453125 -4.648438 L 0.453125 -0.566406 C 0.453125 -0.222656 0.632812 0 0.992188 0 L 2.996094 0 C 4.476562 0 5.265625 -1.265625 5.265625 -2.605469 C 5.265625 -3.949219 4.460938 -5.214844 2.996094 -5.214844 Z M 1.535156 -0.96875 L 1.535156 -4.246094 L 2.761719 -4.246094 C 3.628906 -4.246094 4.1875 -3.546875 4.1875 -2.605469 C 4.1875 -1.667969 3.648438 -0.96875 2.761719 -0.96875 Z M 1.535156 -0.96875 "/></g></g></g><g fill="#000000" fill-opacity="1"><g transform="translate(200.424754, 201.027798)"><g><path d="M 0.609375 -5.214844 C 0.34375 -5.214844 0.132812 -5 0.132812 -4.730469 C 0.132812 -4.460938 0.34375 -4.246094 0.609375 -4.246094 L 1.175781 -4.246094 L 1.175781 -0.96875 L 0.609375 -0.96875 C 0.34375 -0.96875 0.132812 -0.753906 0.132812 -0.484375 C 0.132812 -0.214844 0.34375 0 0.609375 0 L 2.824219 0 C 3.089844 0 3.308594 -0.214844 3.308594 -0.484375 C 3.308594 -0.753906 3.089844 -0.96875 2.824219 -0.96875 L 2.25 -0.96875 L 2.25 -4.246094 L 2.824219 -4.246094 C 3.089844 -4.246094 3.308594 -4.460938 3.308594 -4.730469 C 3.308594 -5 3.089844 -5.214844 2.824219 -5.214844 Z M 0.609375 -5.214844 "/></g></g></g><g fill="#000000" fill-opacity="1"><g transform="translate(203.85137, 201.027798)"><g><path d="M 2.933594 -5.289062 C 1.371094 -5.289062 0.3125 -4.261719 0.3125 -2.605469 C 0.3125 -1.011719 1.304688 0.0742188 2.933594 0.0742188 C 3.800781 0.0742188 4.410156 -0.207031 4.871094 -0.714844 C 5.050781 -0.910156 5.140625 -1.042969 5.140625 -1.339844 L 5.140625 -2.519531 C 5.140625 -2.839844 4.9375 -3.054688 4.597656 -3.054688 L 2.964844 -3.054688 C 2.703125 -3.054688 2.503906 -2.859375 2.503906 -2.605469 C 2.503906 -2.355469 2.703125 -2.160156 2.964844 -2.160156 L 4.050781 -2.160156 L 4.050781 -1.28125 C 3.800781 -1 3.433594 -0.835938 2.933594 -0.835938 C 1.960938 -0.835938 1.402344 -1.519531 1.402344 -2.605469 C 1.402344 -3.710938 1.964844 -4.378906 2.933594 -4.378906 C 3.5625 -4.378906 3.964844 -4.1875 4.214844 -4.050781 C 4.269531 -4.023438 4.320312 -4.023438 4.378906 -4.023438 C 4.632812 -4.023438 4.804688 -4.171875 4.804688 -4.441406 C 4.804688 -4.605469 4.738281 -4.738281 4.589844 -4.828125 C 4.230469 -5.082031 3.6875 -5.289062 2.933594 -5.289062 Z M 2.933594 -5.289062 "/></g></g></g><g fill="#000000" fill-opacity="1"><g transform="translate(209.289261, 201.027798)"><g><path d="M 0.609375 -5.214844 C 0.34375 -5.214844 0.132812 -5 0.132812 -4.730469 C 0.132812 -4.460938 0.34375 -4.246094 0.609375 -4.246094 L 1.175781 -4.246094 L 1.175781 -0.96875 L 0.609375 -0.96875 C 0.34375 -0.96875 0.132812 -0.753906 0.132812 -0.484375 C 0.132812 -0.214844 0.34375 0 0.609375 0 L 2.824219 0 C 3.089844 0 3.308594 -0.214844 3.308594 -0.484375 C 3.308594 -0.753906 3.089844 -0.96875 2.824219 -0.96875 L 2.25 -0.96875 L 2.25 -4.246094 L 2.824219 -4.246094 C 3.089844 -4.246094 3.308594 -4.460938 3.308594 -4.730469 C 3.308594 -5 3.089844 -5.214844 2.824219 -5.214844 Z M 0.609375 -5.214844 "/></g></g></g><g fill="#000000" fill-opacity="1"><g transform="translate(212.715877, 201.027798)"><g><path d="M 0.609375 -5.214844 C 0.34375 -5.214844 0.132812 -5 0.132812 -4.730469 C 0.132812 -4.460938 0.34375 -4.246094 0.609375 -4.246094 L 1.609375 -4.246094 L 1.609375 -0.492188 C 1.609375 -0.148438 1.789062 0.0742188 2.144531 0.0742188 C 2.503906 0.0742188 2.6875 -0.148438 2.6875 -0.492188 L 2.6875 -4.246094 L 3.679688 -4.246094 C 3.949219 -4.246094 4.164062 -4.460938 4.164062 -4.730469 C 4.164062 -5 3.949219 -5.214844 3.679688 -5.214844 Z M 0.609375 -5.214844 "/></g></g></g><g fill="#000000" fill-opacity="1"><g transform="translate(216.991698, 201.027798)"><g><path d="M 2.53125 -5.289062 C 2.523438 -5.289062 2.519531 -5.289062 2.519531 -5.289062 C 2.308594 -5.289062 2.117188 -5.164062 2.027344 -4.976562 L 0.1875 -0.699219 C 0.148438 -0.617188 0.132812 -0.542969 0.132812 -0.460938 C 0.132812 -0.164062 0.371094 0.0742188 0.671875 0.0742188 C 0.894531 0.0742188 1.082031 -0.0234375 1.160156 -0.238281 L 1.535156 -1.25 L 3.5 -1.25 L 3.875 -0.238281 C 3.957031 -0.0234375 4.140625 0.0742188 4.363281 0.0742188 C 4.664062 0.0742188 4.910156 -0.164062 4.910156 -0.460938 C 4.910156 -0.542969 4.886719 -0.617188 4.847656 -0.699219 L 3.007812 -4.976562 C 2.921875 -5.164062 2.742188 -5.28125 2.53125 -5.289062 Z M 3.195312 -2.09375 L 1.847656 -2.09375 L 2.523438 -3.933594 Z M 3.195312 -2.09375 "/></g></g></g><g fill="#000000" fill-opacity="1"><g transform="translate(222.012436, 201.027798)"><g><path d="M 0.992188 -5.289062 C 0.632812 -5.289062 0.453125 -5.066406 0.453125 -4.722656 L 0.453125 -0.566406 C 0.453125 -0.222656 0.632812 0 0.992188 0 L 3.621094 0 C 3.886719 0 4.113281 -0.214844 4.113281 -0.484375 C 4.113281 -0.753906 3.886719 -0.96875 3.621094 -0.96875 L 1.535156 -0.96875 L 1.535156 -4.722656 C 1.535156 -5.066406 1.347656 -5.289062 0.992188 -5.289062 Z M 0.992188 -5.289062 "/></g></g></g></svg>